<svg version="1.1" id="Layer_1" xmlns="http://www.w3.org/2000/svg" xmlns:xlink="http://www.w3.org/1999/xlink" x="0px" y="0px"
	 width="100%" viewBox="0 0 896 480" enable-background="new 0 0 896 480" xml:space="preserve">
<path fill="#000000" opacity="1.000000" stroke="none" 
	d="
M527.464844,205.522217 
	C516.796631,189.798309 506.206055,174.454910 495.925323,158.906631 
	C492.545563,153.795212 488.573669,151.541382 482.300842,152.046677 
	C475.014679,152.633575 467.644836,152.121735 460.314301,152.252853 
	C458.009399,152.294098 455.556824,152.471527 453.452789,153.300095 
	C450.579437,154.431625 449.088135,156.623169 451.787567,159.459915 
	C461.115112,169.261826 467.969513,180.949509 476.307343,191.509750 
	C485.373230,202.992111 493.263336,215.367157 502.828888,226.492752 
	C505.622772,229.742310 507.620087,233.670959 510.041718,237.248276 
	C512.031433,240.187515 510.109833,242.537491 508.580414,244.493271 
	C491.446625,266.403564 476.686310,290.028931 459.668915,312.018768 
	C455.294159,317.671814 451.029480,323.411194 446.591339,329.013519 
	C444.331268,331.866455 441.370270,333.079071 437.713593,331.753448 
	C435.359772,330.900116 433.108917,331.739288 430.841492,332.229340 
	C428.084167,332.825287 425.843933,332.813690 422.941071,331.201935 
	C419.768951,329.440704 415.410034,330.249023 411.848389,332.338165 
	C402.267426,337.957947 392.025085,341.459503 381.034302,343.492157 
	C362.153809,346.983948 344.292053,344.472076 326.990082,336.554688 
	C323.669861,335.035339 320.303070,333.601135 316.892273,332.299225 
	C300.361511,325.989319 290.653107,313.411835 284.466431,297.452118 
	C282.550751,292.510284 279.657349,288.051544 278.009521,282.887268 
	C269.671448,256.756134 271.669891,230.530884 277.266693,204.407394 
	C280.221649,190.614853 288.287628,179.305557 297.888428,169.117569 
	C302.913971,163.784668 307.936798,158.427948 314.501312,154.973434 
	C331.354736,146.104507 349.182220,141.462006 368.346222,143.432220 
	C378.278595,144.453339 388.173584,145.838516 398.085388,147.059875 
	C401.073853,147.428131 403.930328,148.037308 406.599365,149.656250 
	C421.571991,158.738190 436.577850,161.115555 451.281647,149.147888 
	C459.273804,142.642944 468.904053,141.928940 478.482330,141.120529 
	C482.533386,140.778610 485.964905,142.683624 489.604523,144.691772 
	C498.491089,149.594849 506.584534,155.672485 514.836121,161.416367 
	C519.718933,164.815292 524.768982,168.358337 529.089722,172.657562 
	C533.386902,176.933289 535.639099,176.498062 540.995178,173.972534 
	C547.603088,170.856735 550.451233,164.366364 555.360413,159.776749 
	C562.511108,153.091599 570.014648,147.975052 579.748108,146.247345 
	C587.024231,144.955811 594.331299,144.579544 601.652405,145.152802 
	C604.834106,145.401917 608.364014,145.737183 610.211853,149.389465 
	C608.472351,152.292526 605.655273,152.044342 603.101624,152.083878 
	C595.937317,152.194855 588.768005,152.258545 581.605774,152.103683 
	C578.284241,152.031876 575.844910,153.171783 573.889221,155.780228 
	C561.705078,172.031174 550.095215,188.692032 538.854675,205.599091 
	C533.916321,213.026901 532.474182,213.292740 527.464844,205.522217 
M418.535797,175.956375 
	C415.352539,172.806046 412.782623,169.128876 409.091034,166.385544 
	C394.997162,155.912003 379.215698,152.085052 361.777374,151.896072 
	C342.830780,151.690720 326.072449,157.198380 311.852966,169.035522 
	C289.503479,187.640594 279.859650,212.534546 278.958069,241.213196 
	C278.495850,255.915741 281.328461,270.055328 286.011780,283.851379 
	C294.036774,307.491241 308.949768,324.687653 333.509979,331.738129 
	C359.898956,339.313599 385.779388,338.997314 409.928864,323.900604 
	C425.250244,314.322662 434.475464,300.348633 438.446869,282.847076 
	C439.576050,277.871033 438.002136,276.024902 432.832947,275.949158 
	C428.003601,275.878357 423.132416,276.419952 418.349670,275.961426 
	C411.867493,275.340027 408.260986,278.006470 405.618256,283.815247 
	C400.162628,295.806885 390.724609,303.328278 377.681793,305.650482 
	C348.883209,310.777985 323.445312,300.415802 314.974518,271.178589 
	C313.069061,264.601807 311.936615,258.002380 314.225006,251.278015 
	C327.028259,253.393967 339.503448,253.667572 351.958740,253.771408 
	C379.939941,254.004684 407.927551,253.352127 435.903748,254.380432 
	C440.577087,254.552216 442.686005,252.393967 442.908722,247.500641 
	C443.392029,236.880630 441.125641,226.611038 438.626648,216.446960 
	C435.013794,201.752548 429.205170,188.009720 418.535797,175.956375 
M449.274841,242.200668 
	C449.343506,246.292236 448.991699,250.115814 445.102112,252.764755 
	C443.587036,253.796555 443.179688,255.828278 443.108948,257.721985 
	C442.772095,266.738464 448.255432,272.309418 455.286652,276.054535 
	C460.455109,278.807495 465.207611,275.415558 469.270508,272.056061 
	C471.201935,270.458984 473.486023,269.279999 475.264099,267.646881 
	C479.675598,263.595062 485.768524,260.573364 485.989380,253.419830 
	C486.148376,248.269501 486.756226,243.076874 486.588806,238.003189 
	C486.361938,231.126266 483.503296,224.495972 483.264496,217.500748 
	C483.253906,217.190384 483.097015,216.812912 482.880371,216.592331 
	C477.703430,211.321045 473.536774,204.845627 465.987610,202.393723 
	C458.830444,200.069122 455.147156,201.247818 454.169556,206.870117 
	C452.179474,218.315063 450.353699,229.798431 449.274841,242.200668 
M358.855469,273.257690 
	C353.058167,274.685486 353.193085,280.104492 351.764648,284.278442 
	C351.170471,286.014557 352.877167,288.153351 354.724304,288.353119 
	C362.770721,289.223297 370.992035,290.830261 378.436249,285.886566 
	C383.344116,282.627228 383.264374,278.015137 378.046967,275.583282 
	C372.231506,272.872681 366.019684,271.911469 358.855469,273.257690 
z"/>
<path fill="#000000" opacity="1.000000" stroke="none" 
	d="
M259.974823,354.979279 
	C263.888214,360.783783 267.508942,366.347260 271.399597,371.715149 
	C279.894653,383.435669 290.006195,393.777924 299.956482,404.214386 
	C305.477448,410.005127 312.927917,413.457672 319.357056,418.171570 
	C328.172821,424.635345 336.653381,431.575439 345.659973,437.754059 
	C353.645508,443.232147 361.300018,449.029480 371.265350,451.530914 
	C386.995514,455.479309 403.251282,457.742279 418.220367,465.418243 
	C413.775635,465.204956 409.328827,465.027039 404.887238,464.761261 
	C403.062622,464.652100 401.225220,464.047394 399.434631,464.188385 
	C381.646454,465.589478 366.284454,458.329529 351.166443,450.525665 
	C338.326630,443.897766 325.917908,436.457123 314.368622,427.741241 
	C291.733337,410.659088 272.655487,390.315369 257.140594,366.445312 
	C246.235886,349.668182 237.895172,331.745667 231.708389,312.931305 
	C226.990906,298.585205 224.519318,283.570862 222.635071,268.488892 
	C221.257431,257.462006 222.795822,246.598190 222.680862,235.696945 
	C222.558624,224.103851 224.069321,212.817886 225.458008,201.460022 
	C227.352936,185.961609 232.679825,171.420120 238.478821,157.023010 
	C249.783554,128.956955 266.874298,104.671341 287.727417,83.076912 
	C301.986389,68.311035 318.503265,56.169895 336.211914,45.717876 
	C344.675598,40.722431 353.190399,35.744724 362.528442,32.630569 
	C370.076691,30.113297 377.856720,28.232939 385.619202,26.438915 
	C389.990479,25.428654 394.319611,24.889935 398.222626,22.180017 
	C401.159332,20.141008 404.886047,20.927643 409.372711,21.459793 
	C404.893005,24.387676 401.188477,26.678324 396.924683,27.880205 
	C389.830627,29.879885 383.365479,33.062649 377.187500,37.117241 
	C372.191345,40.396206 366.077484,41.408436 360.779205,44.332695 
	C348.767426,50.962311 336.315643,56.857693 326.183960,66.396507 
	C323.362610,69.052780 319.877258,70.717758 316.731842,72.828529 
	C301.674561,82.932945 290.406738,96.832817 279.985260,111.073189 
	C270.645752,123.835121 261.041382,136.643860 253.804306,150.856186 
	C248.566055,161.143143 245.128860,171.886063 244.973938,183.724838 
	C244.822342,195.308716 241.178223,205.919006 235.777069,216.457230 
	C231.275940,225.239365 229.083939,235.504349 230.049561,245.898636 
	C230.603516,251.861603 230.702911,257.871033 231.377365,263.817505 
	C232.237915,271.404907 233.433624,278.848785 236.958038,285.911438 
	C241.529373,295.071930 241.126633,305.702393 244.533997,315.268646 
	C249.259567,328.535797 252.470093,342.393494 259.974823,354.979279 
z"/>
<path fill="#000000" opacity="1.000000" stroke="none" 
	d="
M556.856506,446.831177 
	C536.406250,460.417297 513.978943,465.673584 489.491364,467.145874 
	C490.783325,463.614777 492.852753,463.421631 494.458435,462.897888 
	C506.159271,459.081665 517.905212,455.403473 529.643555,451.702728 
	C538.418823,448.936157 546.422668,444.540375 554.549683,440.323547 
	C569.444397,432.595184 581.566406,421.032654 594.984558,411.300385 
	C605.651062,403.563904 614.160828,393.242523 622.762512,383.086761 
	C634.080811,369.723572 643.230713,355.207825 650.652466,339.491425 
	C659.354431,321.063873 665.227295,301.874817 669.408630,281.797485 
	C672.904419,265.011841 673.366211,248.148026 675.229614,231.337967 
	C675.910706,225.193207 675.512329,218.788086 672.644592,212.783234 
	C670.061523,207.374435 668.379333,201.549988 667.752258,195.537186 
	C666.250366,181.134262 660.031433,168.439941 653.536560,155.843750 
	C652.157532,153.169205 650.897217,150.480637 650.026062,147.587158 
	C648.280273,141.789078 645.345093,136.669678 641.679138,131.799866 
	C637.591248,126.369492 633.972168,120.556465 630.483093,114.710648 
	C619.930237,97.029839 606.065063,82.432426 589.689453,70.091827 
	C586.100647,67.387360 582.622925,64.531670 579.153015,61.674023 
	C569.716858,53.902958 558.880005,48.102547 547.998108,43.134850 
	C539.728638,39.359741 530.580078,36.717312 521.627563,34.175716 
	C516.473022,32.712330 511.989349,29.898825 507.432251,26.707954 
	C513.615723,25.889524 519.851074,25.017374 525.779358,27.244339 
	C551.955872,37.077549 576.528076,49.827328 597.799438,68.273376 
	C609.987488,78.842522 621.527588,90.158615 631.759827,102.592926 
	C645.146240,118.860138 655.886169,136.993195 663.832397,156.462814 
	C670.556152,172.937119 675.179199,190.177994 677.083069,208.015549 
	C677.661011,213.430206 679.305481,218.618835 679.353699,224.219727 
	C679.466309,237.311798 679.681946,250.386658 679.231384,263.485504 
	C678.683167,279.425446 675.431213,294.861786 671.023193,310.041992 
	C663.286865,336.683868 651.243958,361.485718 633.650574,382.832642 
	C612.280273,408.762390 588.097168,431.895142 556.856506,446.831177 
z"/>
<path fill="#000000" opacity="1.000000" stroke="none" 
	d="
M592.564453,208.601685 
	C590.173523,212.189438 588.257141,215.658554 584.326050,217.408630 
	C582.800598,218.087738 582.226746,219.922302 581.696533,221.527679 
	C580.132812,226.262726 578.583984,231.002838 576.993164,235.728790 
	C576.387390,237.528473 575.872314,239.464493 577.182007,240.985321 
	C580.211121,244.502853 580.034851,249.031738 581.484741,253.018524 
	C583.658020,258.994598 587.552063,264.236969 590.698242,269.762726 
	C593.332397,274.389404 598.196716,277.692108 601.694092,281.896759 
	C605.235718,286.154724 608.489868,290.733368 611.521790,295.306183 
	C613.797791,298.738922 615.739380,302.306763 618.670166,305.322418 
	C623.733582,310.532562 623.696289,317.814301 625.832703,324.207825 
	C626.200256,325.307556 625.606934,326.540497 624.483765,327.206329 
	C622.978943,328.098419 621.484314,327.726685 620.345459,326.625488 
	C618.075867,324.430939 615.795776,322.212830 613.799500,319.775574 
	C603.021423,306.616516 594.000793,292.188904 584.078857,278.410736 
	C575.517700,266.522125 566.922607,254.652435 558.058655,242.990158 
	C554.625793,238.473557 554.880554,234.711716 558.283752,230.506729 
	C577.659546,206.565918 594.704224,180.834106 614.524658,157.231842 
	C615.955383,155.528107 617.365601,153.603485 619.895325,154.909103 
	C622.197388,156.097260 622.411865,158.431229 621.782715,160.604507 
	C618.745056,171.099442 616.149902,181.537842 608.014282,189.996124 
	C602.575562,195.650558 598.324341,202.576721 592.564453,208.601685 
z"/>
<path fill="#000000" opacity="1.000000" stroke="none" 
	d="
M547.174072,284.812927 
	C558.553650,301.708374 569.915039,318.190033 579.805847,335.785706 
	C575.714355,337.881561 573.470825,336.534607 571.095459,334.657074 
	C564.790771,329.673798 561.245178,322.478241 557.125854,316.028809 
	C551.592163,307.364777 544.076294,303.042694 534.674255,300.925873 
	C531.571838,300.227356 529.343201,302.047546 527.297791,304.217743 
	C522.036133,309.800507 517.833191,316.415527 511.210754,320.695923 
	C510.506073,321.151398 510.091980,322.338348 509.903870,323.259644 
	C509.283234,326.299316 507.433899,327.550781 504.457886,328.215179 
	C498.476074,329.550659 494.766327,334.406555 490.384888,338.151428 
	C485.736237,342.124695 480.681793,342.943298 475.937225,340.204224 
	C475.720001,339.437164 476.090515,338.671051 476.686066,338.557587 
	C484.466797,337.074951 488.037354,330.808411 491.876953,325.023224 
	C503.012878,308.244263 514.004211,291.369141 525.009033,274.503479 
	C531.895447,263.949463 532.987610,263.880371 540.101501,274.100861 
	C542.476440,277.512970 544.703186,281.028229 547.174072,284.812927 
z"/>
<path fill="#000000" opacity="1.000000" stroke="none" 
	d="
M703.571106,265.462402 
	C701.811157,267.353546 699.997253,268.531982 697.872253,269.121704 
	C696.190674,269.588348 694.139404,271.011871 692.841553,269.061340 
	C691.645020,267.263123 692.567810,264.950806 693.775940,263.467987 
	C695.647217,261.171143 697.782043,258.642334 700.685608,257.906586 
	C705.890686,256.587646 707.039795,252.822327 706.879822,248.485947 
	C706.712646,243.956970 708.225159,241.411270 712.927551,241.555954 
	C718.854736,241.738297 721.493530,238.792801 722.322449,233.095047 
	C722.924744,228.954849 729.964905,225.897003 733.624756,227.683502 
	C734.701172,228.208969 735.055786,229.152451 734.891235,230.149933 
	C734.386780,233.206604 734.601196,236.598053 731.575439,238.650330 
	C730.903809,239.105896 730.037048,239.270828 729.265259,239.582352 
	C720.816345,242.992798 720.537109,243.428619 720.580078,252.700363 
	C720.583679,253.489288 720.382874,254.279175 720.299744,254.899338 
	C719.729431,255.189056 719.419922,255.493683 719.150024,255.461990 
	C711.404785,254.552673 705.232178,256.098053 703.571106,265.462402 
z"/>
<path fill="#000000" opacity="1.000000" stroke="none" 
	d="
M720.968811,210.969772 
	C720.913635,212.128510 720.937805,213.297424 720.790710,214.444366 
	C719.633362,223.465729 719.675293,223.719803 710.635376,225.559753 
	C705.371643,226.631119 705.653748,230.477051 705.041809,234.172241 
	C704.685913,236.321472 706.067139,240.164932 701.890076,239.296997 
	C698.819397,238.658966 693.832336,241.216339 693.000183,235.539032 
	C692.458557,231.844147 692.365295,227.614944 697.615662,227.437988 
	C703.945190,227.224670 706.792725,224.157089 707.246643,218.108566 
	C707.458069,215.291748 709.310364,213.723206 712.030029,213.113022 
	C714.779602,212.496109 717.517151,211.825623 720.629517,211.089294 
	C720.999023,210.999969 720.968811,210.969772 720.968811,210.969772 
z"/>
<path fill="#000000" opacity="1.000000" stroke="none" 
	d="
M203.591248,242.551453 
	C207.307037,241.861847 209.964233,240.026794 212.314713,237.288040 
	C213.146835,242.786652 208.669876,252.277435 204.390778,254.050354 
	C199.825134,255.941986 195.983047,258.244781 193.538925,262.944611 
	C191.516052,266.834442 186.687042,267.207611 182.840225,269.099335 
	C184.325714,264.802216 184.375671,259.723206 189.817856,257.905334 
	C193.459747,256.688873 195.446777,254.249405 196.521149,250.533218 
	C197.524017,247.064392 198.781906,243.386719 203.591248,242.551453 
z"/>
<path fill="#000000" opacity="1.000000" stroke="none" 
	d="
M181.138306,237.223389 
	C183.602966,230.954910 189.426346,229.753418 194.178680,226.437897 
	C195.128433,233.046188 192.961594,237.123047 186.639908,239.970047 
	C182.928986,241.641266 180.242752,243.699295 178.796280,247.635925 
	C177.821594,250.288544 175.979553,252.618546 172.658218,252.723358 
	C171.324905,252.765427 170.392334,251.991425 170.301804,250.648773 
	C170.068298,247.185822 172.097809,245.287491 174.917328,243.676758 
	C177.438187,242.236618 180.382492,240.992874 181.138306,237.223389 
z"/>
<path fill="#000000" opacity="1.000000" stroke="none" 
	d="
M704.925537,199.433517 
	C705.032776,200.533539 705.079529,201.196457 705.074890,201.859024 
	C705.022095,209.424149 700.961304,212.202499 693.761108,209.621323 
	C691.961243,208.976105 691.772461,207.409241 691.923096,205.948105 
	C692.214355,203.123077 690.597900,199.114594 693.932068,197.877853 
	C697.331299,196.616989 701.580139,195.235840 704.925537,199.433517 
z"/>
<path fill="#000000" opacity="1.000000" stroke="none" 
	d="
M734.036865,257.208740 
	C736.007446,261.697418 732.604980,267.141632 726.664307,269.598694 
	C725.310669,270.158569 723.893738,270.802917 722.099182,269.965302 
	C721.041260,266.305542 723.028687,262.623199 722.653198,258.840881 
	C722.490234,257.198730 724.341919,257.075134 725.692078,257.064087 
	C728.349121,257.042358 731.006592,257.077515 734.036865,257.208740 
z"/>
<path fill="#000000" opacity="1.000000" stroke="none" 
	d="
M299.233459,64.457626 
	C296.043854,67.327950 293.422333,70.356720 289.975037,72.429123 
	C288.856445,73.101601 287.802246,74.257751 286.454193,73.096352 
	C285.475555,72.253212 285.626923,71.025612 285.858856,69.846275 
	C286.723206,65.450890 293.220367,60.277855 297.590210,60.529804 
	C300.318695,60.687122 300.578339,62.093674 299.233459,64.457626 
z"/>
<path fill="#000000" opacity="1.000000" stroke="none" 
	d="
M677.963379,129.222137 
	C680.757080,124.899124 684.185730,122.473648 689.230530,122.917816 
	C688.989929,129.360336 685.191284,134.168823 679.647278,134.417252 
	C675.389221,134.608063 677.382568,131.594986 677.963379,129.222137 
z"/>
<path fill="#000000" opacity="1.000000" stroke="none" 
	d="
M721.013672,211.015457 
	C721.714111,206.533676 722.657410,202.149612 727.638916,200.375809 
	C729.343750,199.768768 731.360168,199.345917 732.496704,201.319580 
	C733.565063,203.174500 732.691956,204.880508 731.158142,206.092484 
	C728.344849,208.315338 725.740784,211.009018 721.356689,210.973236 
	C720.968811,210.969772 720.999023,210.999969 721.013672,211.015457 
z"/>
<path fill="#000000" opacity="1.000000" stroke="none" 
	d="
M311.110901,47.355858 
	C312.501801,46.942837 313.665588,46.165535 314.492004,47.559437 
	C314.966675,48.360062 314.668976,49.288582 314.059540,49.826691 
	C310.292786,53.152618 306.463074,56.407196 302.563385,59.763710 
	C299.796570,54.571209 302.429504,50.945160 311.110901,47.355858 
z"/>
<path fill="#000000" opacity="1.000000" stroke="none" 
	d="
M671.883911,55.300175 
	C671.068970,55.647728 670.592041,55.926849 670.123901,55.912819 
	C667.628113,55.837994 664.125183,57.016056 663.641113,53.349129 
	C663.178467,49.844879 666.397827,48.864216 669.246887,48.280941 
	C671.013855,47.919201 673.109680,47.451538 674.119873,49.473927 
	C675.264709,51.765808 673.882690,53.560101 671.883911,55.300175 
z"/>
<path fill="#000000" opacity="1.000000" stroke="none" 
	d="
M710.751282,276.686127 
	C711.071960,276.270782 711.181519,276.144196 711.274841,276.006561 
	C713.139160,273.254578 715.784363,271.834717 718.943604,272.852753 
	C720.534912,273.365601 720.177612,275.527496 719.597595,276.880707 
	C718.198792,280.144073 715.269958,281.715576 712.006165,281.580048 
	C708.612488,281.439178 709.109802,279.140381 710.751282,276.686127 
z"/>
<path fill="#000000" opacity="1.000000" stroke="none" 
	d="
M694.315857,51.322060 
	C694.808899,50.792397 695.030884,50.535854 695.299622,50.345184 
	C697.672791,48.661221 700.236023,48.380032 702.804321,49.702366 
	C703.965149,50.300068 704.099182,51.649090 703.698181,52.812073 
	C702.658203,55.827942 699.937622,56.448425 697.293884,56.751366 
	C692.966919,57.247189 692.320251,55.114830 694.315857,51.322060 
z"/>
<path fill="#000000" opacity="1.000000" stroke="none" 
	d="
M220.284485,176.319763 
	C218.424545,177.786957 216.797440,178.880386 214.656784,177.892715 
	C215.441147,172.727570 218.228424,169.556763 224.346069,167.025574 
	C225.037598,170.975632 222.604233,173.449188 220.284485,176.319763 
z"/>
<path fill="#000000" opacity="1.000000" stroke="none" 
	d="
M739.195007,247.313721 
	C740.979187,244.697174 743.178589,244.494141 744.657898,246.599899 
	C746.509583,249.236053 744.634888,251.669830 742.784851,253.537552 
	C741.660278,254.672867 739.933899,255.166550 737.969299,254.479004 
	C736.606323,252.010345 738.454224,249.905289 739.195007,247.313721 
z"/>
<path fill="#000000" opacity="1.000000" stroke="none" 
	d="
M682.761108,184.995178 
	C687.601685,185.000641 688.655823,187.107208 687.005005,193.341980 
	C682.616089,192.157394 681.393494,189.418396 682.761108,184.995178 
z"/>
<path fill="#000000" opacity="1.000000" stroke="none" 
	d="
M281.259644,80.510887 
	C278.985168,82.566292 276.539673,83.422951 273.863586,84.060921 
	C275.581207,78.075478 279.207001,75.683601 283.777832,77.400070 
	C284.057220,79.157776 282.446167,79.465553 281.259644,80.510887 
z"/>
<path fill="#000000" opacity="1.000000" stroke="none" 
	d="
M707.768433,193.381516 
	C709.548828,187.321411 710.996704,186.424698 716.303467,188.305191 
	C714.183533,191.496735 712.300049,194.440231 707.768433,193.381516 
z"/>
<path fill="#000000" opacity="1.000000" stroke="none" 
	d="
M657.051758,369.367279 
	C655.115906,372.235931 653.430481,374.955658 649.179138,374.655182 
	C650.385742,371.136536 653.115356,369.204437 655.573914,367.324554 
	C657.372070,365.949677 657.743530,367.453461 657.051758,369.367279 
z"/>
<path fill="#000000" opacity="1.000000" stroke="none" 
	d="
M686.175659,278.596161 
	C686.401733,276.480499 686.676575,274.717651 688.971985,273.748596 
	C690.635071,276.185760 689.481873,278.570526 688.185791,280.254669 
	C686.966003,281.839661 686.537109,279.934601 686.175659,278.596161 
z"/>
<path fill="#000000" opacity="1.000000" stroke="none" 
	d="
M681.328552,313.124176 
	C680.410645,312.339020 680.649597,311.521210 680.815308,310.743378 
	C681.125305,309.289062 681.498108,307.806335 683.275330,307.510162 
	C684.119751,307.369476 684.956238,307.685516 685.209167,308.597870 
	C685.631592,310.122040 684.451904,310.985504 683.573608,311.884155 
	C683.031921,312.438324 682.264038,312.771362 681.328552,313.124176 
z"/>
<path fill="#000000" opacity="1.000000" stroke="none" 
	d="
M215.064133,201.497864 
	C215.651611,200.224136 215.775574,198.789597 217.925888,199.526443 
	C217.615784,202.973328 214.996536,205.275833 213.361633,209.541550 
	C212.623489,205.675262 214.430939,203.888870 215.064133,201.497864 
z"/>
<path fill="#000000" opacity="1.000000" stroke="none" 
	d="
M407.561188,223.737213 
	C405.544769,225.836990 403.272064,225.176239 401.177582,225.175415 
	C377.028809,225.165863 352.879974,225.060684 328.731323,225.095535 
	C324.919769,225.101028 321.109253,225.677734 317.297760,225.983704 
	C314.581726,226.201736 313.031708,225.261948 313.753113,222.250671 
	C317.659027,205.946426 324.399933,191.591614 341.203766,184.899414 
	C361.743256,176.719421 386.536377,181.849503 399.652832,201.704788 
	C403.837738,208.039749 407.148560,215.359924 407.561188,223.737213 
z"/>
</svg>